<!-- <svg viewBox="0 0 512 512" width="16px" height="16px">
        <path fill="#828282" d="M150.65,100.682c0,27.992-22.508,50.683-50.273,50.683c-27.765,0-50.273-22.691-50.273-50.683
        C50.104,72.691,72.612,50,100.377,50C128.143,50,150.65,72.691,150.65,100.682z M143.294,187.333H58.277V462h85.017V187.333z
        M279.195,187.333h-81.541V462h81.541c0,0,0-101.877,0-144.181c0-38.624,17.779-61.615,51.807-61.615
        c31.268,0,46.289,22.071,46.289,61.615c0,39.545,0,144.181,0,144.181h84.605c0,0,0-100.344,0-173.915
        s-41.689-109.131-99.934-109.131s-82.768,45.369-82.768,45.369V187.333z"/>
      </svg> -->

<svg viewBox="0 0 16 16" width="36px" height="36px" xmlns="http://www.w3.org/2000/svg" fill-rule="evenodd" clip-rule="evenodd" stroke-linejoin="round" stroke-miterlimit="1.414"><path d="M13.632 13.635h-2.37V9.922c0-.886-.018-2.025-1.234-2.025-1.235 0-1.424.964-1.424 1.96v3.778h-2.37V6H8.51V7.04h.03c.318-.6 1.092-1.233 2.247-1.233 2.4 0 2.845 1.58 2.845 3.637v4.188zM3.558 4.955c-.762 0-1.376-.617-1.376-1.377 0-.758.614-1.375 1.376-1.375.76 0 1.376.617 1.376 1.375 0 .76-.617 1.377-1.376 1.377zm1.188 8.68H2.37V6h2.376v7.635zM14.816 0H1.18C.528 0 0 .516 0 1.153v13.694C0 15.484.528 16 1.18 16h13.635c.652 0 1.185-.516 1.185-1.153V1.153C16 .516 15.467 0 14.815 0z" fill-rule="nonzero"></path></svg>
